<svg width="636" height="158" viewBox="0 0 636 158" fill="none" xmlns="http://www.w3.org/2000/svg">
<path d="M44.5608 119.551C46.8028 119.551 48.8347 118.36 50.6563 115.979C52.478 113.598 53.3888 111.356 53.3888 109.255C53.3888 107.154 53.1787 105.613 52.7583 104.633C49.8156 107.154 47.4334 109.676 45.6117 112.197C43.9302 114.718 43.0894 116.609 43.0894 117.87C43.0894 118.99 43.5799 119.551 44.5608 119.551ZM117.708 71.8564C117.708 72.977 118.058 73.5372 118.759 73.5372C121.421 73.5372 124.084 71.5062 126.746 67.4442C129.408 63.3821 131.23 58.5496 132.211 52.9468C122.542 61.6312 117.708 67.9344 117.708 71.8564ZM165.632 13.2367C165.632 12.3963 165.211 11.9761 164.37 11.9761C160.867 11.9761 157.574 14.3573 154.491 19.1197C151.409 23.742 149.447 28.9246 148.606 34.6676C159.956 24.5825 165.632 17.4388 165.632 13.2367ZM100.052 6.5133C112.663 6.5133 121.912 10.0851 127.797 17.2287C133.682 24.2323 136.625 32.8466 136.625 43.0718V44.9628L144.612 38.0293C145.033 30.3254 147.485 23.1817 151.969 16.5984C156.593 9.875 162.198 6.5133 168.784 6.5133C170.886 6.5133 171.937 7.91401 171.937 10.7154C171.937 13.3768 169.835 17.0186 165.632 21.641C161.568 26.2633 155.753 31.9362 148.186 38.6596V39.7101C148.186 47.9743 151.338 52.1064 157.644 52.1064C162.128 52.1064 165.702 50.9158 168.364 48.5346C169.485 47.6941 170.256 47.2739 170.676 47.2739C171.237 47.2739 171.517 47.6941 171.517 48.5346C171.517 49.2349 171.237 49.7252 170.676 50.0053C170.116 50.1454 169.415 50.5656 168.574 51.266C167.874 51.8262 167.103 52.3865 166.262 52.9468C164.02 54.4876 160.797 55.258 156.593 55.258C149.307 55.258 145.313 50.7757 144.612 41.8112L136.205 49.1649C135.364 56.8688 133.122 63.5922 129.478 69.3351C125.975 74.9379 121.982 77.7394 117.498 77.7394C114.555 77.7394 113.083 76.2686 113.083 73.3271C113.083 68.2846 119.669 59.9504 132.842 48.3245C132.982 47.344 133.052 45.9433 133.052 44.1223C133.052 34.5975 130.039 26.6135 124.013 20.1702C118.128 13.5869 108.529 10.2952 95.2171 10.2952C88.6311 10.2952 81.4145 11.5559 73.5673 14.0771C58.4335 18.6995 45.3315 27.5239 34.2613 40.5505C33.4206 41.391 32.5798 42.3715 31.739 43.492C30.1976 45.7332 29.1467 46.8537 28.5862 46.8537C27.6053 46.2934 27.1148 45.6631 27.1148 44.9628C29.9174 40.9007 33.7709 36.5585 38.6754 31.9362C43.5799 27.3138 48.6245 23.3218 53.8092 19.9601C59.1341 16.5984 65.9303 13.5169 74.1979 10.7154C82.6056 7.91401 91.2235 6.5133 100.052 6.5133ZM89.5419 88.6649L93.7458 88.875C95.9878 89.0151 97.1088 89.8555 97.1088 91.3963C96.9687 91.8165 96.5483 92.0266 95.8477 92.0266C95.2872 92.0266 94.4464 91.8865 93.3254 91.6064C92.2044 91.3262 90.733 91.1862 88.9113 91.1862C76.8603 91.1862 65.8603 94.828 55.9112 102.112C56.7519 103.933 57.1723 106.314 57.1723 109.255C57.1723 112.057 55.9112 114.858 53.3888 117.66C50.8665 120.461 47.9939 121.862 44.771 121.862C41.548 121.862 39.9365 120.741 39.9365 118.5C39.9365 113.878 43.8601 108.415 51.7073 102.112C48.7646 97.6294 42.8792 95.3883 34.0512 95.3883C25.2231 95.3883 18.2167 98.0496 13.0319 103.372C7.98731 108.695 5.465 115.278 5.465 123.122C5.465 130.826 8.40769 137.69 14.2931 143.713C20.3186 149.736 28.6562 152.747 39.306 152.747C57.5226 152.747 76.1597 145.744 95.2171 131.737C101.523 127.114 106.638 123.122 110.561 119.761C114.625 116.399 119.389 111.917 124.854 106.314C130.459 100.711 134.313 96.789 136.415 94.5479L145.453 84.4628C150.217 78.7199 156.033 72.0665 162.899 64.5027C169.765 56.7988 176.001 49.8652 181.606 43.7021C187.211 37.3989 192.326 31.9362 196.95 27.3138C201.715 22.5514 206.479 17.9991 211.243 13.6569C221.192 4.55231 228.339 0 232.683 0C233.944 0 234.575 0.560285 234.575 1.68085C234.575 2.66135 234.014 3.43175 232.893 3.99203C227.568 7.35373 220.772 15.6179 212.504 28.7846C204.377 41.8112 194.988 57.7092 184.339 76.4787C173.689 95.2482 164.721 109.676 157.434 119.761C159.536 118.36 166.052 112.197 176.982 101.271C188.052 90.3457 199.823 78.8599 212.294 66.8138C224.766 54.6277 238.919 42.2314 254.753 29.625C270.728 16.8785 284.46 7.84397 295.951 2.52128C297.913 1.68086 299.244 1.26065 299.944 1.26065C301.486 1.26065 302.257 1.89097 302.257 3.1516C302.257 3.71189 301.766 4.20214 300.785 4.62234C291.116 11.3458 277.384 24.0222 259.588 42.6516C241.931 61.281 225.606 80.8209 210.613 101.271C195.759 121.582 188.332 136.009 188.332 144.553C188.332 151.137 191.065 154.428 196.53 154.428C203.957 154.428 212.014 150.996 220.702 144.133C224.766 140.911 227.078 139.301 227.638 139.301C229.04 139.301 229.74 139.791 229.74 140.771C229.74 141.191 229.53 141.612 229.11 142.032C213.976 152.677 202.135 158 193.587 158C185.039 158 180.765 154.008 180.765 146.024C180.765 140.001 184.549 130.896 192.116 118.71C199.823 106.384 209.001 93.8475 219.651 81.1011C245.014 50.7057 264.912 29.625 279.346 17.859C280.887 16.4583 282.428 15.0576 283.97 13.6569L286.072 11.766C277.104 16.1082 264.562 25.1427 248.447 38.8697C232.473 52.4566 216.008 67.5842 199.052 84.2527C170.326 112.547 148.396 134.748 133.262 150.856C132.421 152.117 131.51 152.747 130.529 152.747C129.689 152.187 129.268 151.557 129.268 150.856C129.268 150.296 129.478 149.806 129.899 149.386C130.319 148.965 131.23 147.775 132.631 145.814C136.555 140.351 139.848 136.009 142.51 132.787C147.695 126.764 159.956 107.014 179.294 73.5372C198.772 40.0603 211.874 19.68 218.6 12.3963C204.587 23.602 186.441 42.4415 164.16 68.9149C143.842 93.1472 124.084 113.107 104.886 128.795C95.2171 136.779 84.4272 143.363 72.5163 148.545C60.7456 153.868 48.9748 156.529 37.204 156.529C25.5734 156.529 16.4651 153.378 9.87904 147.074C3.29301 140.771 0 133.277 0 124.593C0 115.909 3.22295 108.415 9.66885 102.112C16.2549 95.6684 24.4524 92.4468 34.2613 92.4468C44.2104 92.4468 51.0067 94.8981 54.65 99.8005C65.1596 92.3768 76.7903 88.6649 89.5419 88.6649Z" fill="black"/>
<path d="M373.818 23.3218C372.273 23.4127 371.16 23.5944 370.478 23.867C369.796 24.1395 369.319 24.662 369.047 25.4342C368.819 26.2065 368.706 27.4558 368.706 29.1821V62.9808C368.706 64.7071 368.819 65.9564 369.047 66.7287C369.319 67.5009 369.796 68.0234 370.478 68.2959C371.205 68.5685 372.319 68.7502 373.818 68.8411V70.2039C371.319 70.0676 367.751 69.9995 363.116 69.9995C358.253 69.9995 354.663 70.0676 352.345 70.2039V68.8411C353.981 68.7502 355.162 68.5685 355.89 68.2959C356.662 68.0234 357.185 67.5009 357.458 66.7287C357.73 65.9564 357.867 64.7071 357.867 62.9808V27.3422L341.438 70.2721H340.347L321.941 26.3882V59.0285C321.941 61.7088 322.077 63.685 322.35 64.9569C322.622 66.1835 323.213 67.0921 324.122 67.6827C325.031 68.2278 326.508 68.6139 328.553 68.8411V70.2039C326.781 70.0676 324.327 69.9995 321.191 69.9995C318.691 69.9995 316.714 70.0676 315.26 70.2039V68.8411C316.76 68.6139 317.851 68.2278 318.532 67.6827C319.259 67.1375 319.737 66.2744 319.964 65.0932C320.236 63.9121 320.373 62.1631 320.373 59.8463V29.1821C320.373 27.4558 320.236 26.2065 319.964 25.4342C319.737 24.662 319.259 24.1395 318.532 23.867C317.851 23.5944 316.76 23.4127 315.26 23.3218V21.959C316.714 22.0953 318.691 22.1634 321.191 22.1634C325.372 22.1634 328.962 22.0953 331.962 21.959L345.732 55.1444L358.276 22.1634H363.116C367.751 22.1634 371.319 22.0953 373.818 21.959V23.3218Z" fill="black"/>
<path d="M429.846 30.1361C428.255 30.3632 427.074 30.7494 426.301 31.2945C425.529 31.8396 425.006 32.7028 424.733 33.8839C424.461 35.0651 424.324 36.8141 424.324 39.1309V51.7373C424.324 54.8718 424.097 57.5521 423.643 59.7781C423.234 61.9587 422.529 63.8667 421.529 65.5021C420.439 67.2284 418.802 68.6139 416.621 69.6588C414.485 70.6582 412.054 71.1579 409.327 71.1579C404.191 71.1579 400.192 70.1585 397.329 68.1597C395.738 66.9785 394.534 65.7065 393.716 64.3437C392.898 62.9808 392.307 61.3454 391.943 59.4374C391.625 57.484 391.466 54.9854 391.466 51.9417V35.9963C391.466 34.2701 391.33 33.0208 391.057 32.2485C390.83 31.4762 390.353 30.9538 389.626 30.6812C388.944 30.4086 387.853 30.2269 386.353 30.1361V28.7732C388.626 28.9095 392.08 28.9777 396.715 28.9777C401.124 28.9777 404.555 28.9095 407.009 28.7732V30.1361C405.464 30.2269 404.35 30.4086 403.669 30.6812C402.987 30.9538 402.51 31.4762 402.237 32.2485C402.01 33.0208 401.896 34.2701 401.896 35.9963V53.1001C401.896 56.371 402.101 59.074 402.51 61.2091C402.964 63.3442 403.896 65.0705 405.305 66.3879C406.714 67.7054 408.804 68.3641 411.576 68.3641C415.712 68.3641 418.598 66.9785 420.234 64.2074C421.916 61.3908 422.756 57.484 422.756 52.4869V39.9486C422.756 37.3138 422.597 35.3603 422.279 34.0883C421.961 32.8164 421.347 31.9078 420.439 31.3626C419.53 30.7721 418.098 30.3632 416.144 30.1361V28.7732C417.916 28.9095 420.37 28.9777 423.506 28.9777C426.233 28.9777 428.346 28.9095 429.846 28.7732V30.1361Z" fill="black"/>
<path d="M485.27 30.1361C483.77 30.3632 482.657 30.7039 481.929 31.1582C481.248 31.6125 480.771 32.3394 480.498 33.3388C480.271 34.3382 480.157 35.8601 480.157 37.9043V70.3402L478.316 70.2721L476.544 70.3402L449.276 36.4733V61.0728C449.276 63.0717 449.458 64.5935 449.821 65.6384C450.185 66.6378 450.844 67.3647 451.798 67.8189C452.752 68.2732 454.252 68.6139 456.297 68.8411V70.2039C454.252 70.0676 451.662 69.9995 448.526 69.9995C446.026 69.9995 444.049 70.0676 442.595 70.2039V68.8411C444.095 68.6139 445.186 68.2732 445.867 67.8189C446.594 67.3647 447.072 66.6378 447.299 65.6384C447.571 64.6389 447.708 63.1171 447.708 61.0728V35.9963C447.708 34.2701 447.571 33.0208 447.299 32.2485C447.072 31.4762 446.594 30.9538 445.867 30.6812C445.186 30.4086 444.095 30.2269 442.595 30.1361V28.7732C444.049 28.9095 446.026 28.9777 448.526 28.9777C451.753 28.9777 454.525 28.9095 456.843 28.7732L478.589 55.7577V37.9043C478.589 35.9055 478.407 34.4063 478.044 33.4069C477.68 32.3621 476.998 31.6125 475.999 31.1582C475.044 30.7039 473.567 30.3632 471.567 30.1361V28.7732C473.567 28.9095 476.158 28.9777 479.339 28.9777C481.884 28.9777 483.861 28.9095 485.27 28.7732V30.1361Z" fill="black"/>
<path d="M519.46 30.1361C517.915 30.2269 516.802 30.4086 516.12 30.6812C515.438 30.9538 514.961 31.4762 514.689 32.2485C514.461 33.0208 514.348 34.2701 514.348 35.9963V62.9808C514.348 64.7071 514.461 65.9564 514.689 66.7287C514.961 67.5009 515.438 68.0234 516.12 68.2959C516.802 68.5685 517.915 68.7502 519.46 68.8411V70.2039C517.143 70.0676 513.78 69.9995 509.371 69.9995C504.599 69.9995 501.077 70.0676 498.805 70.2039V68.8411C500.35 68.7502 501.463 68.5685 502.145 68.2959C502.827 68.0234 503.281 67.5009 503.509 66.7287C503.781 65.9564 503.918 64.7071 503.918 62.9808V35.9963C503.918 34.2701 503.781 33.0208 503.509 32.2485C503.281 31.4762 502.804 30.9538 502.077 30.6812C501.395 30.4086 500.305 30.2269 498.805 30.1361V28.7732C501.032 28.9095 504.554 28.9777 509.371 28.9777C513.78 28.9777 517.143 28.9095 519.46 28.7732V30.1361Z" fill="black"/>
<path d="M555.475 27.8192C558.111 27.8192 560.247 28.2054 561.883 28.9777C563.519 29.7045 565.201 30.7948 566.928 32.2485C567.428 32.6574 567.86 32.8618 568.223 32.8618C569.132 32.8618 569.723 31.4989 569.996 28.7732H571.563C571.382 31.4989 571.291 36.2689 571.291 43.0832H569.723C569.268 40.63 568.814 38.8583 568.359 37.768C567.905 36.6323 567.223 35.4966 566.314 34.3609C565.042 32.8618 563.588 31.7034 561.951 30.8856C560.361 30.0225 558.702 29.5909 556.975 29.5909C554.475 29.5909 552.294 30.4086 550.431 32.0441C548.567 33.6341 547.113 35.9282 546.068 38.9265C545.068 41.9247 544.568 45.4909 544.568 49.6249C544.568 53.8043 545.113 57.3931 546.204 60.3914C547.34 63.3442 548.885 65.5929 550.84 67.1375C552.794 68.6366 554.998 69.3862 557.452 69.3862C559.225 69.3862 560.952 68.9774 562.633 68.1597C564.36 67.2965 565.837 66.1154 567.064 64.6162C567.973 63.4805 568.632 62.254 569.041 60.9365C569.45 59.6191 569.836 57.7111 570.2 55.2126H571.768C571.768 62.3448 571.859 67.3419 572.041 70.2039H570.473C570.336 68.7956 570.132 67.7735 569.859 67.1375C569.587 66.4561 569.223 66.1154 568.768 66.1154C568.405 66.1154 567.95 66.3198 567.405 66.7287C565.724 68.1369 563.974 69.2272 562.156 69.9995C560.338 70.7718 558.157 71.1579 555.612 71.1579C551.294 71.1579 547.477 70.3175 544.159 68.6366C540.841 66.9558 538.251 64.5254 536.387 61.3454C534.57 58.1654 533.661 54.3494 533.661 49.8974C533.661 45.5817 534.615 41.743 536.524 38.3813C538.433 35.0196 541.023 32.4302 544.295 30.6131C547.613 28.7505 551.34 27.8192 555.475 27.8192Z" fill="black"/>
<path d="M636 30.1361C634.455 30.2269 633.341 30.4086 632.66 30.6812C631.978 30.9538 631.501 31.4762 631.228 32.2485C631.001 33.0208 630.887 34.2701 630.887 35.9963V62.9808C630.887 64.7071 631.001 65.9564 631.228 66.7287C631.501 67.5009 631.978 68.0234 632.66 68.2959C633.387 68.5685 634.5 68.7502 636 68.8411V70.2039C633.909 70.0676 630.592 69.9995 626.047 69.9995C621.457 69.9995 617.889 70.0676 615.344 70.2039V68.8411C616.89 68.7502 618.003 68.5685 618.685 68.2959C619.366 68.0234 619.821 67.5009 620.048 66.7287C620.321 65.9564 620.457 64.7071 620.457 62.9808V49.7611H602.937V62.9808C602.937 64.7071 603.051 65.9564 603.278 66.7287C603.551 67.5009 604.028 68.0234 604.71 68.2959C605.437 68.5685 606.55 68.7502 608.05 68.8411V70.2039C605.551 70.0676 601.983 69.9995 597.347 69.9995C592.894 69.9995 589.576 70.0676 587.394 70.2039V68.8411C588.94 68.7502 590.053 68.5685 590.735 68.2959C591.417 68.0234 591.871 67.5009 592.098 66.7287C592.371 65.9564 592.507 64.7071 592.507 62.9808V35.9963C592.507 34.2701 592.371 33.0208 592.098 32.2485C591.871 31.4762 591.394 30.9538 590.667 30.6812C589.985 30.4086 588.894 30.2269 587.394 30.1361V28.7732C589.576 28.9095 592.894 28.9777 597.347 28.9777C601.983 28.9777 605.551 28.9095 608.05 28.7732V30.1361C606.505 30.2269 605.391 30.4086 604.71 30.6812C604.028 30.9538 603.551 31.4762 603.278 32.2485C603.051 33.0208 602.937 34.2701 602.937 35.9963V48.3983H620.457V35.9963C620.457 34.2701 620.321 33.0208 620.048 32.2485C619.821 31.4762 619.344 30.9538 618.617 30.6812C617.935 30.4086 616.844 30.2269 615.344 30.1361V28.7732C617.889 28.9095 621.457 28.9777 626.047 28.9777C630.592 28.9777 633.909 28.9095 636 28.7732V30.1361Z" fill="black"/>
<path d="M339.938 97.6654C342.665 97.6654 344.982 98.0515 346.891 98.8238C348.8 99.5961 350.663 100.686 352.481 102.095C352.981 102.504 353.413 102.708 353.776 102.708C354.685 102.708 355.276 101.345 355.549 98.6194H357.117C356.935 101.709 356.844 107.205 356.844 115.11H355.276C354.867 111.748 354.322 109.181 353.64 107.41C352.958 105.638 351.799 104.094 350.163 102.776C349.027 101.686 347.709 100.868 346.209 100.323C344.71 99.7324 343.142 99.4371 341.506 99.4371C336.916 99.4371 333.507 101.686 331.28 106.183C329.053 110.635 327.94 116.2 327.94 122.878C327.94 129.511 329.099 135.053 331.416 139.505C333.734 143.957 337.188 146.183 341.778 146.183C343.324 146.183 344.846 145.91 346.346 145.365C347.891 144.775 349.186 143.934 350.232 142.844C351.913 141.572 353.072 139.982 353.708 138.074C354.39 136.166 354.913 133.372 355.276 129.692H356.844C356.844 137.915 356.935 143.639 357.117 146.864H355.549C355.412 145.411 355.208 144.389 354.935 143.798C354.708 143.162 354.367 142.844 353.913 142.844C353.549 142.844 353.072 143.026 352.481 143.389C350.436 144.843 348.482 145.956 346.618 146.728C344.755 147.455 342.506 147.818 339.87 147.818C335.052 147.818 330.826 146.842 327.19 144.888C323.6 142.935 320.805 140.118 318.805 136.439C316.805 132.713 315.805 128.284 315.805 123.151C315.805 118.154 316.828 113.724 318.873 109.863C320.918 106.002 323.759 103.003 327.394 100.868C331.076 98.733 335.257 97.6654 339.938 97.6654Z" fill="black"/>
<path d="M402.66 141.14C403.978 143.957 405.409 145.411 406.955 145.502V146.864C404.773 146.728 401.796 146.66 398.024 146.66C393.161 146.66 389.571 146.728 387.253 146.864V145.502C388.753 145.411 389.867 145.184 390.594 144.82C391.321 144.411 391.684 143.753 391.684 142.844C391.684 142.026 391.389 141.004 390.798 139.778L387.39 132.009H373.074L372.256 133.849C370.983 136.847 370.347 139.187 370.347 140.868C370.347 142.412 370.847 143.548 371.847 144.275C372.847 145.002 374.324 145.411 376.278 145.502V146.864C373.687 146.728 371.074 146.66 368.438 146.66C365.984 146.66 364.144 146.728 362.917 146.864V145.502C364.007 145.274 365.007 144.593 365.916 143.457C366.87 142.276 367.87 140.527 368.916 138.21L383.3 105.297C383.663 105.343 384.186 105.366 384.867 105.366C385.595 105.366 386.117 105.343 386.435 105.297L402.66 141.14ZM386.776 130.646L380.232 115.723L373.687 130.646H386.776Z" fill="black"/>
<path d="M454.194 106.797C452.694 107.024 451.58 107.364 450.853 107.819C450.172 108.273 449.694 109 449.422 109.999C449.194 110.999 449.081 112.52 449.081 114.565V147.001L447.24 146.932L445.468 147.001L418.2 113.134V137.733C418.2 139.732 418.381 141.254 418.745 142.299C419.109 143.298 419.767 144.025 420.722 144.479C421.676 144.934 423.176 145.274 425.221 145.502V146.864C423.176 146.728 420.586 146.66 417.45 146.66C414.95 146.66 412.973 146.728 411.519 146.864V145.502C413.019 145.274 414.109 144.934 414.791 144.479C415.518 144.025 415.995 143.298 416.223 142.299C416.495 141.299 416.632 139.778 416.632 137.733V112.657C416.632 110.93 416.495 109.681 416.223 108.909C415.995 108.137 415.518 107.614 414.791 107.342C414.109 107.069 413.019 106.887 411.519 106.797V105.434C412.973 105.57 414.95 105.638 417.45 105.638C420.676 105.638 423.449 105.57 425.766 105.434L447.513 132.418V114.565C447.513 112.566 447.331 111.067 446.968 110.067C446.604 109.022 445.922 108.273 444.922 107.819C443.968 107.364 442.491 107.024 440.491 106.797V105.434C442.491 105.57 445.081 105.638 448.263 105.638C450.808 105.638 452.785 105.57 454.194 105.434V106.797Z" fill="black"/>
<path d="M481.567 105.434C489.52 105.434 495.474 107.16 499.428 110.612C503.382 114.02 505.359 119.017 505.359 125.604C505.359 129.874 504.404 133.622 502.496 136.847C500.587 140.027 497.792 142.503 494.111 144.275C490.429 146.001 486.044 146.864 480.954 146.864L476.591 146.796C473.682 146.705 471.546 146.66 470.183 146.66C466.138 146.66 463.048 146.728 460.912 146.864V145.502C462.457 145.411 463.57 145.229 464.252 144.956C464.934 144.684 465.388 144.161 465.615 143.389C465.888 142.617 466.024 141.368 466.024 139.641V112.657C466.024 110.93 465.888 109.681 465.615 108.909C465.388 108.137 464.934 107.614 464.252 107.342C463.57 107.069 462.457 106.887 460.912 106.797V105.434C462.639 105.57 465.07 105.638 468.206 105.638L474.75 105.57C478.113 105.479 480.386 105.434 481.567 105.434ZM480.681 106.66C479.499 106.66 478.613 106.819 478.022 107.137C477.432 107.455 477.023 108.023 476.795 108.841C476.568 109.658 476.454 110.885 476.454 112.52V139.778C476.454 141.413 476.568 142.64 476.795 143.457C477.023 144.275 477.432 144.843 478.022 145.161C478.613 145.479 479.522 145.638 480.749 145.638C484.249 145.638 486.998 144.911 488.998 143.457C490.998 141.958 492.406 139.778 493.224 136.916C494.042 134.054 494.451 130.374 494.451 125.876C494.451 119.244 493.406 114.383 491.316 111.294C489.225 108.205 485.68 106.66 480.681 106.66Z" fill="black"/>
<path d="M533.425 106.797C531.88 106.887 530.766 107.069 530.084 107.342C529.403 107.614 528.925 108.137 528.653 108.909C528.426 109.681 528.312 110.93 528.312 112.657V140.459C528.312 141.867 528.426 142.912 528.653 143.594C528.925 144.275 529.357 144.729 529.948 144.956C530.539 145.184 531.425 145.297 532.607 145.297H535.265C538.265 145.297 540.787 144.23 542.832 142.094C544.877 139.914 546.264 136.416 546.991 131.6H548.559C548.422 133.1 548.354 134.962 548.354 137.188C548.354 140.005 548.513 143.23 548.831 146.864C545.877 146.728 540.901 146.66 533.902 146.66C524.54 146.66 517.496 146.728 512.769 146.864V145.502C514.314 145.411 515.428 145.229 516.109 144.956C516.791 144.684 517.246 144.161 517.473 143.389C517.745 142.617 517.882 141.368 517.882 139.641V112.657C517.882 110.93 517.745 109.681 517.473 108.909C517.246 108.137 516.768 107.614 516.041 107.342C515.36 107.069 514.269 106.887 512.769 106.797V105.434C515.087 105.57 518.677 105.638 523.54 105.638C527.812 105.638 531.107 105.57 533.425 105.434V106.797Z" fill="black"/>
<path d="M591.224 138.006C591.224 140.595 591.383 143.548 591.701 146.864C588.747 146.728 583.771 146.66 576.772 146.66C567.41 146.66 560.366 146.728 555.639 146.864V145.502C557.184 145.411 558.298 145.229 558.98 144.956C559.661 144.684 560.116 144.161 560.343 143.389C560.616 142.617 560.752 141.368 560.752 139.641V112.657C560.752 110.93 560.616 109.681 560.343 108.909C560.116 108.137 559.639 107.614 558.911 107.342C558.23 107.069 557.139 106.887 555.639 106.797V105.434C560.366 105.57 567.41 105.638 576.772 105.638C583.135 105.638 587.657 105.57 590.338 105.434C590.02 108.477 589.861 111.203 589.861 113.611C589.861 115.382 589.929 116.791 590.065 117.836H588.497C587.816 113.929 586.634 111.158 584.953 109.522C583.271 107.841 580.953 107.001 577.999 107.001H575.477C574.295 107.001 573.409 107.115 572.818 107.342C572.227 107.523 571.796 107.932 571.523 108.568C571.296 109.159 571.182 110.113 571.182 111.43V125.331H574.386C576.477 125.331 578.045 124.604 579.09 123.151C580.181 121.652 580.908 119.925 581.271 117.972H582.839C582.703 119.516 582.635 121.288 582.635 123.287V126.013C582.635 128.057 582.771 130.737 583.044 134.054H581.476C581.158 131.918 580.431 130.169 579.294 128.807C578.204 127.398 576.568 126.694 574.386 126.694H571.182V140.868C571.182 142.185 571.296 143.162 571.523 143.798C571.796 144.389 572.227 144.797 572.818 145.025C573.409 145.206 574.295 145.297 575.477 145.297H578.408C581.635 145.297 584.157 144.366 585.975 142.503C587.838 140.641 589.134 137.506 589.861 133.1H591.429C591.292 134.372 591.224 136.007 591.224 138.006Z" fill="black"/>
<path d="M617.291 104.48C619.382 104.48 621.154 104.707 622.608 105.161C624.108 105.615 625.517 106.229 626.835 107.001C627.335 107.274 627.766 107.501 628.13 107.682C628.539 107.864 628.88 107.955 629.153 107.955C629.562 107.955 629.88 107.728 630.107 107.274C630.334 106.774 630.516 106.002 630.652 104.957H632.22C631.993 107.682 631.879 112.407 631.879 119.13H630.312C629.812 115.042 628.494 111.839 626.358 109.522C624.222 107.16 621.427 105.979 617.973 105.979C615.7 105.979 613.86 106.479 612.451 107.478C611.087 108.477 610.406 109.772 610.406 111.362C610.406 112.589 610.769 113.724 611.496 114.769C612.269 115.769 613.269 116.7 614.496 117.563C615.723 118.426 617.518 119.562 619.881 120.97L621.381 121.856C624.108 123.401 626.335 124.809 628.062 126.081C629.789 127.307 631.22 128.784 632.357 130.51C633.493 132.191 634.061 134.099 634.061 136.234C634.061 139.959 632.516 142.821 629.425 144.82C626.335 146.819 622.267 147.818 617.223 147.818C615.041 147.818 613.155 147.568 611.565 147.069C609.974 146.615 608.361 145.979 606.725 145.161C605.588 144.616 604.793 144.343 604.339 144.343C603.93 144.343 603.611 144.593 603.384 145.093C603.157 145.547 602.975 146.297 602.839 147.341H601.271C601.453 144.797 601.544 139.255 601.544 130.715H603.111C603.43 135.53 604.725 139.323 606.997 142.094C609.315 144.866 612.564 146.251 616.746 146.251C618.791 146.251 620.563 145.729 622.063 144.684C623.563 143.639 624.313 142.094 624.313 140.05C624.313 138.233 623.608 136.666 622.199 135.348C620.79 134.031 618.382 132.373 614.973 130.374C610.656 127.921 607.338 125.581 605.02 123.355C602.748 121.129 601.612 118.517 601.612 115.519C601.612 111.975 603.066 109.25 605.975 107.342C608.929 105.434 612.701 104.48 617.291 104.48Z" fill="black"/>
</svg>
